<svg width="50" height="50" viewBox="0 0 50 50" fill="none" xmlns="http://www.w3.org/2000/svg">
<rect opacity="0.05" width="50" height="50" rx="25" fill="#001432"/>
<g clip-path="url(#clip0_643_269)">
<path d="M26 32.938C28.0173 32.6813 29.8611 31.6661 31.1568 30.0988C32.4525 28.5314 33.1027 26.5295 32.9754 24.5C32.848 22.4704 31.9527 20.5655 30.4713 19.1724C28.9898 17.7793 27.0336 17.0025 25 17C22.964 16.9985 21.0039 17.7733 19.5193 19.1667C18.0347 20.56 17.1372 22.467 17.0097 24.499C16.8822 26.5311 17.5343 28.5353 18.8331 30.1033C20.132 31.6712 21.9797 32.685 24 32.938V27H22V25H24V23.346C24 22.009 24.14 21.524 24.4 21.035C24.6561 20.5512 25.052 20.1557 25.536 19.9C25.918 19.695 26.393 19.572 27.223 19.519C27.552 19.498 27.978 19.524 28.501 19.599V21.499H28C27.083 21.499 26.704 21.542 26.478 21.663C26.3431 21.7324 26.2334 21.8421 26.164 21.977C26.044 22.203 26 22.427 26 23.345V25H28.5L28 27H26V32.938ZM25 35C19.477 35 15 30.523 15 25C15 19.477 19.477 15 25 15C30.523 15 35 19.477 35 25C35 30.523 30.523 35 25 35Z" fill="#001432"/>
</g>
<defs>
<clipPath id="clip0_643_269">
<rect width="24" height="24" fill="white" transform="translate(13 13)"/>
</clipPath>
</defs>
</svg>
