<svg width="50" height="50" viewBox="0 0 50 50" fill="none" xmlns="http://www.w3.org/2000/svg">
<rect opacity="0.05" width="50" height="50" rx="25" fill="#001432"/>
<g clip-path="url(#clip0_643_271)">
<path d="M25 22.55C25.917 21.613 27.111 21 28.5 21C29.9587 21 31.3576 21.5795 32.3891 22.6109C33.4205 23.6424 34 25.0413 34 26.5V34H32V26.5C32 25.5717 31.6313 24.6815 30.9749 24.0251C30.3185 23.3687 29.4283 23 28.5 23C27.5717 23 26.6815 23.3687 26.0251 24.0251C25.3687 24.6815 25 25.5717 25 26.5V34H23V21.5H25V22.55ZM18 19.5C17.6022 19.5 17.2206 19.342 16.9393 19.0607C16.658 18.7794 16.5 18.3978 16.5 18C16.5 17.6022 16.658 17.2206 16.9393 16.9393C17.2206 16.658 17.6022 16.5 18 16.5C18.3978 16.5 18.7794 16.658 19.0607 16.9393C19.342 17.2206 19.5 17.6022 19.5 18C19.5 18.3978 19.342 18.7794 19.0607 19.0607C18.7794 19.342 18.3978 19.5 18 19.5ZM17 21.5H19V34H17V21.5Z" fill="#001432"/>
</g>
<defs>
<clipPath id="clip0_643_271">
<rect width="24" height="24" fill="white" transform="translate(13 13)"/>
</clipPath>
</defs>
</svg>
