<svg width="50" height="50" viewBox="0 0 50 50" fill="none" xmlns="http://www.w3.org/2000/svg">
<path d="M16.9666 49.0235V39.6245L12.2244 35.3083C9.25702 32.6087 7.56561 29.7529 7.56561 25.7414V22.9458H31.2931C31.9655 24.544 33.5463 25.6657 35.389 25.6657H41.6983L43.2461 28.0053C43.6013 28.733 43.1568 29.5986 42.3582 29.7325L39.7625 30.1711C39.2084 30.2643 38.8028 30.7437 38.8028 31.3055V35.5014C38.8028 37.7785 36.9568 39.6245 34.6797 39.6245C33.6234 39.6245 32.7671 40.4808 32.7671 41.5371V49.0235H16.9666Z" fill="#FFDAD5"/>
<path d="M19.949 32.1201V37.9981C19.949 38.8967 19.2213 39.6245 18.3236 39.6245H16.9666L12.2244 35.3083C9.25702 32.6087 7.56561 29.7529 7.56561 25.7414V22.9458H15.9991C15.9904 23.0661 15.9865 24.8045 15.9865 24.8045C15.9865 26.4173 16.7221 26.9723 17.9854 27.9767C19.2479 28.981 19.949 30.5064 19.949 32.1201V32.1201Z" fill="#FFD28D"/>
<path d="M24.6553 15.4749H31.2932C31.9656 13.8767 33.5464 12.755 35.3891 12.755H38.4282C38.6718 12.0098 38.8028 10.2437 38.8028 9.4179V0.976685L37.5811 2.61272C36.2537 4.38948 34.1654 5.43655 31.9472 5.43655H21.8137C18.035 5.43655 14.4107 6.93772 11.7392 9.60911C10.403 10.9453 8.92411 13.4504 8.54091 15.475H16.1177H24.6553V15.4749Z" fill="#FFD28D"/>
<path d="M16.1177 15.4749H8.64666C7.5201 15.4749 6.60692 16.3879 6.60692 17.5146V20.907C6.60692 22.0326 7.52 22.9458 8.64666 22.9458H31.2931C31.07 22.416 30.9468 21.8337 30.9468 21.2234V17.1972C30.9468 16.5869 31.07 16.0046 31.2931 15.4749H24.6553H16.1177Z" fill="#868EAF"/>
<path d="M41.8025 12.7551H39.3435V25.6659H41.8025C42.6682 25.6659 43.3699 24.9641 43.3699 24.0984V14.3226C43.3699 13.4569 42.6681 12.7551 41.8025 12.7551V12.7551Z" fill="white"/>
<path d="M35.389 12.7551C32.9354 12.7551 30.9463 14.7442 30.9463 17.1978V21.2232C30.9463 23.6768 32.9354 25.6659 35.389 25.6659H39.3434V12.7551H35.389Z" fill="#E7E7EF"/>
<path d="M6.58915 23.109V25.7414C6.58915 29.7252 8.1245 32.8986 11.5672 36.0305L15.9901 40.0561V49.0234C15.9901 49.5628 16.4273 50 16.9667 50C17.506 50 17.9432 49.5628 17.9432 49.0234V40.601H18.3237C19.7584 40.601 20.9256 39.4333 20.9256 37.998V32.1201C20.9256 30.1803 20.0756 28.3914 18.5932 27.2122L18.5258 27.1587C17.2872 26.1745 16.9632 25.873 16.9632 24.8067C16.9638 24.5103 16.9649 24.2005 16.9662 23.9224H30.6887C31.4191 25.197 32.6281 26.1087 34.0311 26.47C34.473 26.5848 34.9325 26.6424 35.389 26.6424H41.1736L42.3833 28.4711C42.4245 28.6055 42.3318 28.7468 42.1955 28.7696L39.6005 29.2081C38.5725 29.381 37.8262 30.2631 37.8262 31.3055V35.5014C37.8262 37.2364 36.4147 38.6479 34.6797 38.6479C33.0867 38.6479 31.7905 39.944 31.7905 41.5371V49.0235C31.7905 49.5628 32.2278 50.0001 32.767 50.0001C33.3063 50.0001 33.7436 49.5628 33.7436 49.0235V41.5371C33.7436 41.021 34.1635 40.6011 34.6797 40.6011C37.4916 40.6011 39.7793 38.3134 39.7793 35.5014V31.3055C39.7793 31.2203 39.8404 31.1483 39.9251 31.1341L42.5197 30.6957C43.9162 30.4614 44.8979 28.7311 44.0605 27.4665L43.2263 26.2056C43.9017 25.7477 44.3463 24.974 44.3463 24.0984V14.3226C44.3463 12.9198 43.205 11.7785 41.8023 11.7785H39.6137C39.7283 10.9091 39.7791 9.94105 39.7791 9.41791V0.976715C39.7791 0.556012 39.5097 0.182576 39.1104 0.0499587C38.7106 -0.0826583 38.2717 0.0554274 38.02 0.392438L36.7988 2.02818C35.6611 3.55083 33.8473 4.45991 31.947 4.45991H21.8136C17.7469 4.45991 13.9239 6.04331 11.0487 8.9185C9.78993 10.1774 8.32489 12.4666 7.733 14.6402C6.51523 15.0282 5.63046 16.1698 5.63046 17.5146V20.9069C5.63037 21.7752 5.9998 22.5583 6.58915 23.109V23.109ZM17.3107 28.6879L17.3775 28.7409C18.3911 29.5473 18.9725 30.779 18.9725 32.1202V37.9982C18.9725 38.3565 18.6815 38.648 18.3237 38.648H17.3445L12.8816 34.586C9.84003 31.8189 8.54227 29.1739 8.54227 25.7415V23.9225H8.64667H15.0128C15.0117 24.1581 15.0107 24.4478 15.0099 24.8046C15.0099 26.8599 16.0253 27.6665 17.3107 28.6879V28.6879ZM34.0645 13.9952C34.4823 13.8218 34.9366 13.7317 35.389 13.7317H38.3668V24.6892H35.389C33.5099 24.6892 31.9233 23.1044 31.9233 21.2234V17.1973C31.9233 15.8159 32.7837 14.5237 34.0645 13.9952V13.9952ZM42.3934 14.3226V24.0983C42.3934 24.4961 42.0536 24.6892 41.6985 24.6892H40.32V13.7317H41.8026C42.1282 13.7317 42.3934 13.9967 42.3934 14.3226ZM12.4298 10.2996C14.936 7.7933 18.2686 6.41303 21.8135 6.41303H31.947C34.1789 6.41303 36.3207 5.46469 37.8261 3.84175V9.41791C37.8261 10.0136 37.7538 11.0398 37.6416 11.7785H35.3889C33.4679 11.7785 31.6444 12.83 30.6885 14.4984H24.6552C24.1159 14.4984 23.6787 14.9356 23.6787 15.4749C23.6787 16.0143 24.1159 16.4515 24.6552 16.4515H30.0208C29.987 16.6983 29.9698 16.9488 29.9698 17.1978V21.2232C29.9698 21.472 29.987 21.7228 30.0208 21.9693H15.9992H8.64667C8.06044 21.9693 7.58349 21.4928 7.58349 20.907V17.5147C7.58349 16.9284 8.06044 16.4515 8.64667 16.4515H16.1176C16.657 16.4515 17.0942 16.0143 17.0942 15.4749C17.0942 14.9356 16.657 14.4984 16.1176 14.4984H9.82713C10.407 12.9052 11.4993 11.2301 12.4298 10.2996V10.2996Z" fill="#001432"/>
<path d="M19.4835 15.8487C19.8231 16.6632 21.0256 16.6218 21.3098 15.7884C21.5974 14.9446 20.6459 14.1851 19.8837 14.6377C19.4717 14.8824 19.3028 15.4074 19.4835 15.8487V15.8487Z" fill="#001432"/>
</svg>
