<svg width="28" height="28" viewBox="0 0 28 28" fill="none" xmlns="http://www.w3.org/2000/svg">
<g opacity="0.3" clip-path="url(#clip0_643_188)">
<path d="M12.8333 12.8335H15.1667H19.8333V15.1668H15.1667H12.8333H8.16667V12.8335H12.8333ZM14 25.6668C7.5565 25.6668 2.33333 20.4437 2.33333 14.0002C2.33333 7.55666 7.5565 2.3335 14 2.3335C20.4435 2.3335 25.6667 7.55666 25.6667 14.0002C25.6667 20.4437 20.4435 25.6668 14 25.6668ZM14 23.3335C16.4754 23.3335 18.8493 22.3502 20.5997 20.5998C22.35 18.8495 23.3333 16.4755 23.3333 14.0002C23.3333 11.5248 22.35 9.15084 20.5997 7.4005C18.8493 5.65016 16.4754 4.66683 14 4.66683C11.5246 4.66683 9.15067 5.65016 7.40034 7.4005C5.65 9.15084 4.66667 11.5248 4.66667 14.0002C4.66667 16.4755 5.65 18.8495 7.40034 20.5998C9.15067 22.3502 11.5246 23.3335 14 23.3335Z" fill="#001432"/>
</g>
<defs>
<clipPath id="clip0_643_188">
<rect width="28" height="28" fill="white"/>
</clipPath>
</defs>
</svg>
