<svg width="50" height="50" viewBox="0 0 50 50" fill="none" xmlns="http://www.w3.org/2000/svg">
<g clip-path="url(#clip0_643_155)">
<path d="M45.0302 22.5827V5.78479H20.8954V47.9382H45.0302V31.2051V22.5827Z" fill="#EAF0F0"/>
<path d="M4.5578 22.0132H20.8954V47.9383H4.5578V22.0132Z" fill="#EAF0F0"/>
<path d="M4.5578 17.9708H11.2872V22.0131H4.5578V17.9708Z" fill="#BFD8D8"/>
<path d="M24.5209 2.06189H41.6511V5.78484H24.5209V2.06189Z" fill="#BFD8D8"/>
<path d="M26.1783 11.2363H30.3179V15.3759H26.1783V11.2363Z" fill="#0DACFF"/>
<path d="M35.3304 11.2363H39.4699V15.3759H35.3304V11.2363Z" fill="#0DACFF"/>
<path d="M26.1783 19.7754H30.3179V23.9149H26.1783V19.7754Z" fill="#0DACFF"/>
<path d="M35.3304 19.7754H39.4699V23.9149H35.3304V19.7754Z" fill="#0DACFF"/>
<path d="M26.1783 28.3145H30.3179V32.454H26.1783V28.3145Z" fill="#0DACFF"/>
<path d="M35.3304 28.3145H39.4699V32.454H35.3304V28.3145Z" fill="#0DACFF"/>
<path d="M29.6968 38.8418H36.0647V47.9379H29.6968V38.8418Z" fill="#DC1F27"/>
<path d="M10.5003 42.4977H14.83V47.9378H10.5003V42.4977Z" fill="#DC1F27"/>
<path d="M49.0234 46.9618H46.0068V31.2051C46.0068 30.6659 45.5695 30.2286 45.0303 30.2286C44.491 30.2286 44.0537 30.6659 44.0537 31.2051V46.9618H37.0412V38.8418C37.0412 38.3026 36.6039 37.8653 36.0646 37.8653H29.6967C29.1574 37.8653 28.7201 38.3026 28.7201 38.8418V46.9618H21.8719V22.0131V6.76138H44.0537V22.5828C44.0537 23.122 44.491 23.5593 45.0303 23.5593C45.5695 23.5593 46.0068 23.122 46.0068 22.5828V5.78481C46.0068 5.24556 45.5695 4.80825 45.0303 4.80825H42.6276V2.06177C42.6276 1.52251 42.1903 1.08521 41.6511 1.08521H24.5209C23.9816 1.08521 23.5443 1.52251 23.5443 2.06177V4.80825H20.8954C20.3562 4.80825 19.9188 5.24556 19.9188 5.78481V21.0366H12.2637V17.9708C12.2637 17.4316 11.8264 16.9943 11.2871 16.9943H4.55781C4.01855 16.9943 3.58125 17.4316 3.58125 17.9708V22.0131V46.9618H0.976562C0.437305 46.9618 0 47.3991 0 47.9383C0 48.4776 0.437305 48.9149 0.976562 48.9149H49.0234C49.5627 48.9149 50 48.4776 50 47.9383C50 47.3991 49.5627 46.9618 49.0234 46.9618V46.9618ZM25.4975 3.03833H40.6746V4.80825H25.4975V3.03833ZM5.53438 18.9474H10.3105V21.0366H5.53438V18.9474ZM13.8534 46.9614H11.4768V43.4744H13.8534V46.9614ZM19.9188 46.9618H15.8066V42.4978C15.8066 41.9585 15.3693 41.5212 14.8301 41.5212H10.5003C9.96104 41.5212 9.52373 41.9585 9.52373 42.4978V46.9618H5.53438V22.9897H11.2871H19.9188V46.9618ZM35.0882 46.9614H30.6733V39.8183H35.0882V46.9614Z" fill="#001432"/>
<path d="M45.8418 26.461C45.3572 25.7348 44.1951 25.9962 44.0649 26.8601C43.9321 27.7403 45.008 28.3217 45.6738 27.738C46.0399 27.4171 46.1071 26.8657 45.8418 26.461V26.461Z" fill="#001432"/>
<path d="M31.2945 11.2363C31.2945 10.6971 30.8572 10.2598 30.3179 10.2598H26.1783C25.6391 10.2598 25.2018 10.6971 25.2018 11.2363V15.3759C25.2018 15.9151 25.6391 16.3524 26.1783 16.3524H30.3179C30.8572 16.3524 31.2945 15.9151 31.2945 15.3759V11.2363ZM29.3413 14.3992H27.1549V12.2128H29.3413V14.3992Z" fill="#001432"/>
<path d="M40.4465 11.2363C40.4465 10.6971 40.0092 10.2598 39.4699 10.2598H35.3304C34.7911 10.2598 34.3538 10.6971 34.3538 11.2363V15.3759C34.3538 15.9151 34.7911 16.3524 35.3304 16.3524H39.4699C40.0092 16.3524 40.4465 15.9151 40.4465 15.3759V11.2363ZM38.4934 14.3992H36.3069V12.2128H38.4934V14.3992Z" fill="#001432"/>
<path d="M31.2945 19.7754C31.2945 19.2361 30.8572 18.7988 30.3179 18.7988H26.1783C25.6391 18.7988 25.2018 19.2361 25.2018 19.7754V23.9149C25.2018 24.4542 25.6391 24.8915 26.1783 24.8915H30.3179C30.8572 24.8915 31.2945 24.4542 31.2945 23.9149V19.7754ZM29.3413 22.9384H27.1549V20.752H29.3413V22.9384Z" fill="#001432"/>
<path d="M40.4465 19.7754C40.4465 19.2361 40.0092 18.7988 39.4699 18.7988H35.3304C34.7911 18.7988 34.3538 19.2361 34.3538 19.7754V23.9149C34.3538 24.4542 34.7911 24.8915 35.3304 24.8915H39.4699C40.0092 24.8915 40.4465 24.4542 40.4465 23.9149V19.7754ZM38.4934 22.9384H36.3069V20.752H38.4934V22.9384Z" fill="#001432"/>
<path d="M30.3179 27.3378H26.1783C25.6391 27.3378 25.2018 27.7751 25.2018 28.3143V32.4539C25.2018 32.9931 25.6391 33.4304 26.1783 33.4304H30.3179C30.8572 33.4304 31.2945 32.9931 31.2945 32.4539V28.3143C31.2945 27.7751 30.8572 27.3378 30.3179 27.3378ZM29.3413 31.4773H27.1549V29.2909H29.3413V31.4773Z" fill="#001432"/>
<path d="M39.4699 27.3378H35.3304C34.7911 27.3378 34.3538 27.7751 34.3538 28.3143V32.4539C34.3538 32.9931 34.7911 33.4304 35.3304 33.4304H39.4699C40.0092 33.4304 40.4465 32.9931 40.4465 32.4539V28.3143C40.4465 27.7751 40.0092 27.3378 39.4699 27.3378ZM38.4934 31.4773H36.3069V29.2909H38.4934V31.4773Z" fill="#001432"/>
<path d="M8.65594 25.2399C8.11669 25.2399 7.67938 25.6772 7.67938 26.2164V38.4511C7.67938 38.9904 8.11669 39.4277 8.65594 39.4277C9.1952 39.4277 9.63251 38.9904 9.63251 38.4511V26.2164C9.63251 25.6772 9.1952 25.2399 8.65594 25.2399Z" fill="#001432"/>
<path d="M12.6555 39.4277C13.1947 39.4277 13.632 38.9904 13.632 38.4511V26.2164C13.632 25.6772 13.1947 25.2399 12.6555 25.2399C12.1162 25.2399 11.6789 25.6772 11.6789 26.2164V38.4511C11.6789 38.9905 12.1161 39.4277 12.6555 39.4277Z" fill="#001432"/>
<path d="M16.6551 39.4277C17.1943 39.4277 17.6317 38.9904 17.6317 38.4511V26.2164C17.6317 25.6772 17.1943 25.2399 16.6551 25.2399C16.1158 25.2399 15.6785 25.6772 15.6785 26.2164V38.4511C15.6785 38.9905 16.1157 39.4277 16.6551 39.4277Z" fill="#001432"/>
</g>
<defs>
<clipPath id="clip0_643_155">
<rect width="50" height="50" fill="white"/>
</clipPath>
</defs>
</svg>
