<svg width="80" height="80" viewBox="0 0 80 80" fill="none" xmlns="http://www.w3.org/2000/svg">
<circle opacity="0.5" cx="40" cy="40" r="40" fill="white"/>
<g clip-path="url(#clip0_643_68)">
<path d="M46.9079 40.5L37.5834 34.2832V46.7169L46.9079 40.5ZM51.2567 41.1067L35.7998 51.4113C35.69 51.4844 35.5624 51.5263 35.4307 51.5326C35.299 51.5389 35.168 51.5093 35.0517 51.4471C34.9354 51.3848 34.8382 51.2922 34.7704 51.1791C34.7026 51.0659 34.6668 50.9365 34.6667 50.8046V30.1955C34.6668 30.0636 34.7026 29.9342 34.7704 29.821C34.8382 29.7079 34.9354 29.6153 35.0517 29.553C35.168 29.4908 35.299 29.4612 35.4307 29.4675C35.5624 29.4738 35.69 29.5157 35.7998 29.5888L51.2567 39.8934C51.3566 39.96 51.4384 40.0502 51.4951 40.156C51.5517 40.2618 51.5813 40.38 51.5813 40.5C51.5813 40.6201 51.5517 40.7383 51.4951 40.8441C51.4384 40.9499 51.3566 41.0401 51.2567 41.1067Z" fill="black"/>
</g>
<defs>
<clipPath id="clip0_643_68">
<rect width="35" height="35" fill="white" transform="translate(23 23)"/>
</clipPath>
</defs>
</svg>
