<svg width="50" height="50" viewBox="0 0 50 50" fill="none" xmlns="http://www.w3.org/2000/svg">
<g clip-path="url(#clip0_643_77)">
<path d="M25.0016 46.3861C36.8125 46.3861 46.3872 36.8115 46.3872 25.0005C46.3872 13.1896 36.8125 3.61499 25.0016 3.61499C13.1907 3.61499 3.61609 13.1896 3.61609 25.0005C3.61609 36.8115 13.1907 46.3861 25.0016 46.3861Z" fill="#72D8FF"/>
<path d="M38.1862 12.2732C35.701 12.2732 33.6865 14.2877 33.6865 16.7728C33.6865 17.6957 32.9381 18.4441 32.0152 18.4441C30.3822 18.4441 29.0583 19.7679 29.0583 21.4009V22.0438C29.0583 23.6768 30.3822 25.0006 32.0152 25.0006H46.3873C46.3873 20.2325 44.8262 15.8294 42.1881 12.2731C42.1881 12.2732 38.1862 12.2732 38.1862 12.2732Z" fill="#A0E557"/>
<path d="M28.7544 34.1255H27.7127C26.9486 34.1255 26.3294 33.506 26.3294 32.7422V28.5528C26.3294 26.5911 24.7392 25.0009 22.7774 25.0009H18.8268H17.185C15.8994 25.0009 14.8572 26.0429 14.8572 27.3286C14.8572 27.65 14.5967 27.9105 14.2753 27.9105H14.1884C12.2162 27.9105 10.6176 29.5093 10.6177 31.4814V31.4818C10.6178 33.4538 12.2164 35.0523 14.1884 35.0523H15.6391C16.6533 35.0523 17.4757 35.8746 17.4757 36.8888C17.4758 38.5409 18.815 39.8801 20.467 39.8801H25.0212C26.6732 39.8801 28.0125 41.2193 28.0125 42.8714V46.1743C29.3039 45.9923 30.5585 45.6956 31.765 45.2937V37.1363C31.7651 35.4734 30.4172 34.1255 28.7544 34.1255Z" fill="#A0E557"/>
<path d="M25.7897 1.03878C26.0721 3.17012 25.3462 5.31153 23.8259 6.83174L20.833 9.82462L25.6457 19.8497L23.6649 21.8305L17.2332 13.4244L11.3997 19.2579H11.3853L11.7625 23.4423L9.36931 25.8356L7.56609 19.2625L0.993042 17.4594L3.3863 15.0661L7.57068 15.4433V15.4289L13.4042 9.59542L4.99792 3.16358L6.97869 1.18282L17.0039 5.99551L19.9968 3.00264C21.517 1.48233 23.6584 0.756452 25.7897 1.03878Z" fill="white"/>
<path d="M47.3517 2.65094C43.6371 -1.06361 36.7187 -0.815371 28.8191 3.03434C28.6526 3.06822 28.4993 3.14527 28.3729 3.25514C27.7442 3.57086 27.1096 3.90904 26.4703 4.26959C26.8028 3.19332 26.908 2.04586 26.7577 0.910703C26.6996 0.473106 26.3554 0.128867 25.9178 0.0708595C23.5015 -0.249258 21.0297 0.588633 19.3062 2.31227L16.8025 4.81598L7.40131 0.302695C7.02729 0.123301 6.58129 0.199375 6.28822 0.492539L4.30737 2.4732C4.10834 2.67223 4.00483 2.94742 4.02348 3.22828C4.04203 3.50904 4.181 3.76822 4.40453 3.93932L11.925 9.69352L7.19008 14.4286L3.47387 14.0937C3.18608 14.0676 2.90043 14.1711 2.69565 14.3757L0.302483 16.7688C0.0564868 17.0148 -0.0399976 17.3731 0.0489672 17.7092C0.13803 18.0455 0.399163 18.309 0.734612 18.401L3.41733 19.137C2.90141 21.0406 2.63949 23.0085 2.63949 25.0008C2.63949 26.3188 2.75649 27.6379 2.98471 28.9264C1.78061 31.4213 0.920354 33.8525 0.438518 36.1497C-0.580818 41.0103 0.184319 44.8836 2.6516 47.3508C4.39125 49.0906 6.90209 49.9993 9.94701 49.9993C10.1956 49.9993 10.4483 49.9932 10.7039 49.981C13.7686 49.8351 17.3468 48.8094 21.0672 47.016C22.3479 47.2442 23.6631 47.3631 25.0016 47.3631C29.5918 47.3631 34.0029 45.9825 37.7576 43.3704C38.2002 43.0624 38.3095 42.4539 38.0015 42.0111C37.6935 41.5683 37.0848 41.4592 36.6422 41.7671C34.3212 43.3818 31.725 44.4799 28.9891 45.0208V42.8716C28.9891 40.6838 27.209 38.9038 25.0211 38.9038H20.4669C19.3561 38.9038 18.4522 38 18.4521 36.8889C18.4519 35.3379 17.19 34.0759 15.6389 34.0759H14.1882C12.758 34.0759 11.5942 32.9123 11.5941 31.4815C11.5941 30.7884 11.8639 30.1371 12.3538 29.647C12.8438 29.157 13.4953 28.8871 14.1882 28.8871H14.2751C15.1346 28.8871 15.8336 28.1879 15.8336 27.3287C15.8336 26.5836 16.4398 25.9775 17.1847 25.9775H22.7773C24.1974 25.9775 25.3528 27.1329 25.3528 28.553V32.7423C25.3528 34.0435 26.4114 35.1022 27.7127 35.1022H28.7544C29.8761 35.1022 30.7887 36.0147 30.7887 37.1366V39.5012C30.7887 40.0406 31.226 40.4777 31.7652 40.4777C32.3044 40.4777 32.7416 40.0405 32.7416 39.5012V37.1366C32.7416 34.938 30.953 33.1492 28.7543 33.1492H27.7126C27.4882 33.1492 27.3057 32.9667 27.3057 32.7423V28.5529C27.3057 26.0558 25.2742 24.0245 22.7773 24.0245H17.1847C15.4934 24.0245 14.0948 25.302 13.9031 26.9427C12.7957 27.0108 11.7642 27.4747 10.9729 28.266C10.114 29.1249 9.64106 30.2669 9.64115 31.4819C9.64125 33.9891 11.6812 36.0288 14.1882 36.0288H15.6389C16.1131 36.0288 16.4992 36.4147 16.4992 36.8889C16.4993 39.0767 18.2792 40.8567 20.467 40.8567H25.0212C26.1323 40.8567 27.0362 41.7606 27.0362 42.8715V45.2754C27.0362 45.2868 27.0375 45.2979 27.0379 45.3093C26.3648 45.3758 25.6856 45.41 25.0017 45.41C15.3351 45.41 7.00307 38.6261 5.02914 29.2186C5.84994 27.5824 6.82123 25.9182 7.92514 24.263L8.42748 26.0941C8.51947 26.4296 8.78305 26.6908 9.11928 26.7797C9.20199 26.8016 9.28588 26.8123 9.36918 26.8123C9.62485 26.8123 9.87426 26.7118 10.0598 26.5262L12.4531 24.1331C12.6579 23.9283 12.7611 23.6432 12.7352 23.3548L12.4002 19.6387L17.1353 14.9037L22.8894 22.4243C23.0605 22.6478 23.3196 22.7867 23.6004 22.8052C23.8802 22.8235 24.1564 22.7204 24.3555 22.5213L26.3363 20.5406C26.6294 20.2474 26.7055 19.8011 26.526 19.4275L22.0128 10.0261L23.808 8.23102C25.6377 6.98092 27.4493 5.9108 29.2093 5.02662C33.5383 5.93277 37.3125 8.18629 40.1267 11.2969H38.1863C35.1667 11.2969 32.7101 13.7536 32.7101 16.7731C32.7101 17.1562 32.3985 17.4679 32.0153 17.4679C29.8463 17.4679 28.0819 19.2325 28.0819 21.4013V22.0442C28.0819 24.213 29.8463 25.9776 32.0153 25.9776H39.6538C40.193 25.9776 40.6302 25.5404 40.6302 25.0011C40.6302 24.4619 40.1929 24.0247 39.6538 24.0247H32.0153C30.9233 24.0247 30.0349 23.1363 30.0349 22.0443V21.4014C30.0349 20.3094 30.9234 19.4211 32.0153 19.4211C33.4752 19.4211 34.663 18.2333 34.663 16.7732C34.663 14.8305 36.2435 13.2501 38.1862 13.2501H41.0145C41.2192 13.2501 41.409 13.1868 41.566 13.0792C43.9968 16.4579 45.4108 20.5913 45.4108 25.0011C45.4108 28.378 44.5692 31.723 42.9771 34.675C42.7211 35.1497 42.8983 35.742 43.3731 35.9979C43.5205 36.0774 43.6793 36.1152 43.8358 36.1152C44.1832 36.1152 44.5197 35.9293 44.6962 35.602C46.4414 32.3663 47.3638 28.7005 47.3638 25.0011C47.3638 23.663 47.2449 22.3479 47.0165 21.0673C48.8116 17.3439 49.8374 13.7628 49.9822 10.6963C50.1417 7.31334 49.2322 4.53131 47.3517 2.65094ZM18.0007 46.24C11.8371 48.7229 6.72016 48.6575 4.03276 45.9699C1.53334 43.4706 1.73823 39.4681 2.35014 36.5506C2.65199 35.1118 3.12846 33.5885 3.76137 32.0171C5.99584 38.8047 11.3477 44.0463 18.0007 46.24ZM4.61205 25.8745C4.59975 25.5835 4.59272 25.2921 4.59272 25.0007C4.59272 23.1834 4.83119 21.3888 5.30092 19.6536L6.77143 20.057L7.25004 21.8014C6.28002 23.1623 5.39916 24.5234 4.61205 25.8745ZM19.9526 10.2474L24.4658 19.6488L23.7627 20.3518L18.0087 12.8312C17.8376 12.6077 17.5786 12.4688 17.2977 12.4503C17.0174 12.4317 16.7417 12.535 16.5426 12.7341L10.8015 18.4753C10.7524 18.5119 10.7064 18.5533 10.6645 18.5993C10.4794 18.8017 10.3881 19.0726 10.4127 19.3458L10.7488 23.0751L9.86645 23.9574L8.50785 19.0041C8.41664 18.6716 8.15688 18.4119 7.82446 18.3207L2.87123 16.9621L3.75356 16.0796L7.48285 16.4157C7.75688 16.4406 8.0269 16.3489 8.22934 16.1639C8.27524 16.122 8.31664 16.0762 8.35326 16.0271L14.0946 10.2858C14.2936 10.0868 14.3971 9.81158 14.3785 9.53072C14.3599 9.24996 14.2209 8.99078 13.9974 8.81969L6.4769 3.06559L7.17992 2.36256L16.5813 6.87574C16.9552 7.05514 17.4013 6.97906 17.6944 6.6859L20.6872 3.69303C21.7964 2.58375 23.3174 1.96207 24.872 1.95631C24.8662 3.5109 24.2445 5.03189 23.1353 6.14117L22.4799 6.79654C22.4797 6.79674 22.4795 6.79693 22.4794 6.79713L20.1423 9.13424C19.8493 9.4275 19.7731 9.87369 19.9526 10.2474ZM46.2403 18.001C44.0452 11.3463 38.7997 5.99137 32.009 3.75826C38.0775 1.31803 43.2487 1.30982 45.9706 4.03199C48.658 6.7192 48.7234 11.8371 46.2403 18.001Z" fill="#001432"/>
<path d="M41.6773 38.4359C41.2699 38.0714 40.6609 38.1089 40.2903 38.5212C40.2886 38.5231 40.2869 38.5249 40.2853 38.5268C39.9179 38.942 39.9501 39.5515 40.3588 39.9145C40.5461 40.0808 40.7753 40.1625 41.0042 40.1625C41.2751 40.1625 41.5457 40.0481 41.7456 39.8238C42.1144 39.4101 42.0846 38.8004 41.6773 38.4359Z" fill="#001432"/>
</g>
<defs>
<clipPath id="clip0_643_77">
<rect width="50" height="50" fill="white"/>
</clipPath>
</defs>
</svg>
