<svg width="50" height="50" viewBox="0 0 50 50" fill="none" xmlns="http://www.w3.org/2000/svg">
<rect opacity="0.05" width="50" height="50" rx="25" fill="#001432"/>
<g clip-path="url(#clip0_643_273)">
<path d="M28.3 18.5501C27.54 18.55 26.8103 18.8482 26.2679 19.3807C25.7255 19.9131 25.4139 20.6372 25.4 21.3971L25.372 22.9721C25.3704 23.0567 25.3509 23.1399 25.3148 23.2164C25.2787 23.2929 25.2269 23.3609 25.1626 23.416C25.0984 23.471 25.0233 23.5119 24.9422 23.5359C24.8611 23.5599 24.7758 23.5664 24.692 23.5551L23.131 23.3431C21.077 23.0631 19.109 22.1171 17.221 20.5441C16.623 23.8541 17.791 26.1471 20.604 27.9161L22.351 29.0141C22.434 29.0663 22.503 29.138 22.5518 29.223C22.6007 29.308 22.628 29.4036 22.6314 29.5016C22.6348 29.5996 22.614 29.6969 22.5711 29.785C22.5281 29.8731 22.4642 29.9494 22.385 30.0071L20.793 31.1701C21.74 31.2291 22.639 31.1871 23.385 31.0391C28.103 30.0971 31.24 26.5471 31.24 20.6911C31.24 20.2131 30.228 18.5501 28.3 18.5501V18.5501ZM23.4 21.3601C23.4175 20.3962 23.7189 19.4588 24.2666 18.6653C24.8142 17.8719 25.5838 17.2576 26.4789 16.8995C27.374 16.5413 28.3549 16.4552 29.2987 16.6519C30.2426 16.8485 31.1074 17.3193 31.785 18.0051C32.496 18.0001 33.101 18.1801 34.454 17.3601C34.119 19.0001 33.954 19.7121 33.24 20.6911C33.24 28.3331 28.543 32.0491 23.777 33.0001C20.509 33.6521 15.757 32.5811 14.395 31.1591C15.089 31.1051 17.909 30.8021 19.539 29.6091C18.16 28.7001 12.671 25.4701 16.278 16.7861C17.971 18.7631 19.688 20.1091 21.428 20.8231C22.586 21.2981 22.87 21.2881 23.401 21.3611L23.4 21.3601Z" fill="#001432"/>
</g>
<defs>
<clipPath id="clip0_643_273">
<rect width="24" height="24" fill="white" transform="translate(13 13)"/>
</clipPath>
</defs>
</svg>
