<svg width="50" height="50" viewBox="0 0 50 50" fill="none" xmlns="http://www.w3.org/2000/svg">
<rect opacity="0.05" width="50" height="50" rx="25" fill="#001432"/>
<g clip-path="url(#clip0_643_272)">
<path d="M32.606 19.995C32.53 19.697 32.314 19.472 32.067 19.403C31.63 19.28 29.5 19 25 19C20.5 19 18.372 19.28 17.931 19.403C17.687 19.471 17.471 19.696 17.394 19.995C17.285 20.419 17 22.196 17 25C17 27.804 17.285 29.58 17.394 30.006C17.47 30.303 17.686 30.528 17.932 30.596C18.372 30.72 20.5 31 25 31C29.5 31 31.629 30.72 32.069 30.597C32.313 30.529 32.529 30.304 32.606 30.005C32.715 29.581 33 27.8 33 25C33 22.2 32.715 20.42 32.606 19.995ZM34.543 19.498C35 21.28 35 25 35 25C35 25 35 28.72 34.543 30.502C34.289 31.487 33.546 32.262 32.605 32.524C30.896 33 25 33 25 33C25 33 19.107 33 17.395 32.524C16.45 32.258 15.708 31.484 15.457 30.502C15 28.72 15 25 15 25C15 25 15 21.28 15.457 19.498C15.711 18.513 16.454 17.738 17.395 17.476C19.107 17 25 17 25 17C25 17 30.896 17 32.605 17.476C33.55 17.742 34.292 18.516 34.543 19.498V19.498ZM23 28.5V21.5L29 25L23 28.5Z" fill="#001432"/>
</g>
<defs>
<clipPath id="clip0_643_272">
<rect width="24" height="24" fill="white" transform="translate(13 13)"/>
</clipPath>
</defs>
</svg>
